<svg width="1440" height="820" viewBox="0 0 1440 820" fill="none" xmlns="http://www.w3.org/2000/svg">
<g clip-path="url(#clip0_61385_101)">
<rect width="1440" height="820" fill="#1F1F23"/>
<circle cx="881" cy="-137" r="559" transform="rotate(-180 881 -137)" fill="url(#paint0_radial_61385_101)"/>
<circle cx="559" cy="-137" r="559" transform="rotate(-180 559 -137)" fill="url(#paint1_radial_61385_101)"/>
<rect x="541" y="140" width="358" height="540" fill="url(#paint2_linear_61385_101)" fill-opacity="0.26"/>
<mask id="mask0_61385_101" style="mask-type:alpha" maskUnits="userSpaceOnUse" x="541" y="140" width="358" height="540">
<rect x="541" y="140" width="358" height="540" fill="black"/>
</mask>
<g mask="url(#mask0_61385_101)">
<path d="M899 201.492V-256.824L719.5 -360L540 -256.824V201.492L719.5 304.674L899 201.492Z" fill="url(#paint3_linear_61385_101)"/>
<g style="mix-blend-mode:luminosity" opacity="0.4">
<path d="M541.801 99.3496V202.159L631.101 253.569L720.4 202.159V99.3496L631.101 47.9399L541.801 99.3496Z" fill="url(#paint4_linear_61385_101)"/>
<path d="M541.801 -3.46505V99.3445L631.101 150.754L720.4 99.3445V-3.46505L631.101 -54.8747L541.801 -3.46505Z" fill="url(#paint5_linear_61385_101)"/>
<path d="M720.4 202.159V99.3492L809.7 47.9395L899 99.3492V202.159L809.7 253.568L720.4 202.159Z" fill="url(#paint6_linear_61385_101)"/>
<path d="M899 -3.46505V99.3445L809.7 150.754L720.4 99.3445V-3.46505L809.7 -54.8747L899 -3.46505Z" fill="url(#paint7_linear_61385_101)"/>
<path d="M809.7 253.59V150.781L720.4 99.3711L631.101 150.781V253.59L720.4 305L809.7 253.59Z" fill="url(#paint8_linear_61385_101)"/>
</g>
</g>
<rect x="680" y="156" width="80" height="8" fill="#1F1F23" fill-opacity="0.5"/>
<rect x="688" width="64" height="158" fill="url(#paint9_linear_61385_101)"/>
</g>
<defs>
<radialGradient id="paint0_radial_61385_101" cx="0" cy="0" r="1" gradientUnits="userSpaceOnUse" gradientTransform="translate(881 -137) rotate(90) scale(559)">
<stop stop-color="#00C2FF"/>
<stop offset="1" stop-color="#121214" stop-opacity="0"/>
</radialGradient>
<radialGradient id="paint1_radial_61385_101" cx="0" cy="0" r="1" gradientUnits="userSpaceOnUse" gradientTransform="translate(559 -137) rotate(90) scale(559)">
<stop stop-color="#FF0000"/>
<stop offset="1" stop-color="#121214" stop-opacity="0"/>
</radialGradient>
<linearGradient id="paint2_linear_61385_101" x1="720" y1="80.5" x2="720" y2="754" gradientUnits="userSpaceOnUse">
<stop stop-color="#DB00FF" stop-opacity="0.4"/>
<stop offset="0.661458" stop-color="#1F1F23"/>
</linearGradient>
<linearGradient id="paint3_linear_61385_101" x1="540" y1="-344.234" x2="979.976" y2="-283.679" gradientUnits="userSpaceOnUse">
<stop stop-color="#00C2FF" stop-opacity="0.7"/>
<stop offset="0.526042" stop-color="#DB00FF" stop-opacity="0.4"/>
<stop offset="1" stop-color="#FF0000" stop-opacity="0.7"/>
</linearGradient>
<linearGradient id="paint4_linear_61385_101" x1="631.101" y1="248.84" x2="542.185" y2="97.1039" gradientUnits="userSpaceOnUse">
<stop stop-color="white"/>
<stop offset="1" stop-color="#FF008E" stop-opacity="0"/>
</linearGradient>
<linearGradient id="paint5_linear_61385_101" x1="631.101" y1="146.026" x2="542.185" y2="-5.71074" gradientUnits="userSpaceOnUse">
<stop stop-color="white"/>
<stop offset="1" stop-color="#FF008E" stop-opacity="0"/>
</linearGradient>
<linearGradient id="paint6_linear_61385_101" x1="899" y1="207.937" x2="720.676" y2="100.328" gradientUnits="userSpaceOnUse">
<stop stop-color="#00FFC2" stop-opacity="0"/>
<stop offset="1" stop-color="#FFCD1E"/>
</linearGradient>
<linearGradient id="paint7_linear_61385_101" x1="809.7" y1="146.026" x2="898.615" y2="-5.71073" gradientUnits="userSpaceOnUse">
<stop stop-color="white"/>
<stop offset="1" stop-color="#FF008E" stop-opacity="0"/>
</linearGradient>
<linearGradient id="paint8_linear_61385_101" x1="720.4" y1="104.099" x2="809.316" y2="255.836" gradientUnits="userSpaceOnUse">
<stop stop-color="white"/>
<stop offset="1" stop-color="#FF008E" stop-opacity="0"/>
</linearGradient>
<linearGradient id="paint9_linear_61385_101" x1="688" y1="79" x2="752" y2="79" gradientUnits="userSpaceOnUse">
<stop stop-color="#82E8FF" stop-opacity="0.5"/>
<stop offset="0.515625" stop-color="#DB00FF" stop-opacity="0.1"/>
<stop offset="1" stop-color="#FF7878" stop-opacity="0.5"/>
</linearGradient>
<clipPath id="clip0_61385_101">
<rect width="1440" height="820" fill="white"/>
</clipPath>
</defs>
</svg>
